<svg xmlns="http://www.w3.org/2000/svg" fill="currentColor" height="24" viewBox="0 0 24 24" width="24"><path d="M10 3H3v7c0 .265.105.52.293.707.187.188.442.293.707.293.265 0 .52-.105.707-.293C4.895 10.52 5 10.265 5 10V6.414l4.293 4.293.076.068c.192.155.435.233.68.22.247-.014.48-.118.654-.292.174-.174.278-.407.291-.653.014-.246-.064-.489-.219-.681l-.068-.076L6.414 5H10c.265 0 .52-.105.707-.293C10.895 4.52 11 4.265 11 4c0-.265-.105-.52-.293-.707C10.52 3.105 10.265 3 10 3Zm10 10c-.265 0-.52.105-.707.293-.188.187-.293.442-.293.707v3.586l-4.293-4.293-.076-.068c-.192-.155-.435-.233-.68-.22-.247.014-.48.118-.654.292-.174.174-.278.407-.291.653-.014.246.064.489.219.681l.068.076L17.586 19H14c-.265 0-.52.105-.707.293-.188.187-.293.442-.293.707 0 .265.105.52.293.707.187.188.442.293.707.293h7v-7c0-.265-.105-.52-.293-.707C20.52 13.105 20.265 13 20 13Z"/></svg>